<svg xmlns="http://www.w3.org/2000/svg" viewBox="0 0 1200 260" role="img" aria-labelledby="title desc">
  <title id="title">SPL logo</title>
  <desc id="desc">Stylized SPL logo with a blue circular emblem and gray SPL lettering.</desc>
  <g fill="none" fill-rule="evenodd">
    <g transform="translate(10 10)">
      <circle cx="120" cy="120" r="110" stroke="#00AEEF" stroke-width="16"/>
      <circle cx="120" cy="120" r="70" stroke="#00AEEF" stroke-width="18"/>
      <path d="M18 120h96" stroke="#00AEEF" stroke-linecap="round" stroke-width="18"/>
      <path d="M112 90h96" stroke="#00AEEF" stroke-linecap="round" stroke-width="18"/>
      <g stroke="#00AEEF" stroke-linecap="round" stroke-width="4" opacity=".9">
        <path d="M120 26v10"/>
        <path d="M120 194v10"/>
        <path d="M26 120h10"/>
        <path d="M204 120h10"/>
        <path d="M53.53 53.53l7.07 7.07"/>
        <path d="M179.4 179.4l7.07 7.07"/>
        <path d="M53.53 186.47l7.07-7.07"/>
        <path d="M179.4 60.6l7.07-7.07"/>
        <path d="M84.59 30.81l3.88 9.22"/>
        <path d="M151.53 199.97l3.88 9.22"/>
        <path d="M30.81 155.41l9.22-3.88"/>
        <path d="M199.97 88.47l9.22-3.88"/>
        <path d="M30.81 84.59l9.22 3.88"/>
        <path d="M199.97 151.53l9.22 3.88"/>
        <path d="M84.59 209.19l3.88-9.22"/>
        <path d="M151.53 40.03l3.88-9.22"/>
      </g>
    </g>
    <g transform="translate(285 38)" stroke="#A7A9AC" stroke-linecap="round" stroke-linejoin="round" stroke-width="20">
      <path d="M0 35c0-19.33 15.67-35 35-35h152"/>
      <path d="M0 35c0 19.33 15.67 35 35 35h114c19.33 0 35 15.67 35 35s-15.67 35-35 35H10"/>
      <path d="M290 0h154c19.33 0 35 15.67 35 35s-15.67 35-35 35H290"/>
      <path d="M290 0v160"/>
      <path d="M630 0v160h120"/>
    </g>
  </g>
</svg>
